<svg width="20" height="17" viewBox="0 0 20 17" fill="none" xmlns="http://www.w3.org/2000/svg">
<path fill-rule="evenodd" clip-rule="evenodd" d="M16.7962 0.645592C17.8511 -0.611411 20 0.0901489 20 1.69152V14.3471C20 15.8123 18.7372 17 17.1795 17H2.82051C1.26279 17 0 15.8123 0 14.3471V12.222C0 11.6947 0.167121 11.1793 0.48002 10.7416L4.26326 5.45033C4.86544 4.6081 6.11595 4.45247 6.9303 5.1184L10.3524 7.91677C10.4629 8.00711 10.6312 7.99226 10.7219 7.88418L16.7962 0.645592ZM18.4615 1.69152C18.4615 1.46275 18.1545 1.36253 18.0039 1.5421L11.9295 8.78069C11.2946 9.53725 10.1163 9.64116 9.34297 9.00878L5.9209 6.21041C5.80456 6.11528 5.62591 6.13751 5.53989 6.25783L1.75665 11.5491C1.61443 11.748 1.53846 11.9823 1.53846 12.222V14.3471C1.53846 15.0131 2.11246 15.553 2.82051 15.553H17.1795C17.8875 15.553 18.4615 15.0131 18.4615 14.3471V1.69152Z" fill="currentColor"/>
</svg>
