<svg width="20" height="20" viewBox="0 0 20 20" fill="none" xmlns="http://www.w3.org/2000/svg">
<path fill-rule="evenodd" clip-rule="evenodd" d="M8.2 1.4C4.44446 1.4 1.4 4.44446 1.4 8.2C1.4 11.9555 4.44446 15 8.2 15C11.9555 15 15 11.9555 15 8.2C15 4.44446 11.9555 1.4 8.2 1.4ZM0 8.2C0 3.67126 3.67126 0 8.2 0C12.7287 0 16.4 3.67126 16.4 8.2C16.4 10.2124 15.6751 12.0554 14.4722 13.4823L19.195 18.205C19.4683 18.4784 19.4683 18.9216 19.195 19.195C18.9216 19.4683 18.4784 19.4683 18.205 19.195L13.4823 14.4722C12.0554 15.6751 10.2124 16.4 8.2 16.4C3.67126 16.4 0 12.7287 0 8.2Z" fill="currentColor"/>
</svg>
